<svg xmlns="http://www.w3.org/2000/svg" xmlns:xlink="http://www.w3.org/1999/xlink" version="1.1" width="24" height="24"  viewBox="0 0 24 24"><path fill="currentColor" d="M1.397 17.606l121.06 242.468q3.2 6.635 10.767 6.635.96 0 2.852-.378 4.161-.96 6.693-4.278 2.59-3.318 2.59-7.48V145.447h108.953q4.162 0 7.45-2.532 3.317-2.56 4.278-6.722.931-4.162-.757-7.945-1.717-3.783-5.5-5.704L17.665 1.34Q15.22 0 12.223 0 7.072 0 3.667 3.608.873 6.229.175 10.128q-.67 3.899 1.222 7.478zM512 348.715a11.786 11.786 0 0 1-3.638 8.614l-48.918 48.976a11.757 11.757 0 0 1-8.614 3.638 11.757 11.757 0 0 1-8.585-3.638 11.786 11.786 0 0 1-3.638-8.613v-25.405h-67.019v66.233h26.278c3.318 0 6.17 1.193 8.614 3.608a11.786 11.786 0 0 1 3.609 8.614 11.786 11.786 0 0 1-3.609 8.614l-48.947 49.006a11.757 11.757 0 0 1-8.585 3.637 11.757 11.757 0 0 1-8.614-3.637l-48.89-49.006a11.786 11.786 0 0 1-3.666-8.614c0-3.317 1.222-6.17 3.638-8.614a11.757 11.757 0 0 1 8.613-3.608h27.18v-66.233H260.19v25.405a11.786 11.786 0 0 1-3.637 8.613 11.757 11.757 0 0 1-8.585 3.638 11.757 11.757 0 0 1-8.614-3.638l-48.889-48.976a11.786 11.786 0 0 1-3.667-8.614c0-3.318 1.223-6.199 3.638-8.614l48.918-49.006a11.757 11.757 0 0 1 8.614-3.637c3.318 0 6.17 1.222 8.585 3.637a11.786 11.786 0 0 1 3.637 8.614v28.14h67.02v-68.037h-27.18a11.757 11.757 0 0 1-8.614-3.638 11.786 11.786 0 0 1-3.638-8.613c0-3.318 1.222-6.17 3.638-8.614l48.918-48.977a11.757 11.757 0 0 1 8.614-3.638c3.317 0 6.17 1.223 8.585 3.638l48.947 48.977a11.786 11.786 0 0 1 3.609 8.614 11.786 11.786 0 0 1-3.609 8.613 11.757 11.757 0 0 1-8.614 3.638h-26.278v68.038h67.02v-28.14c0-3.318 1.222-6.17 3.637-8.615a11.757 11.757 0 0 1 8.585-3.637c3.317 0 6.198 1.222 8.614 3.637l48.918 49.006a11.786 11.786 0 0 1 3.638 8.614z"></path></svg>